#!OML:ASF Y:\EmotionMaleHayes\Project 1\Capture day 1\Session 1\Male1.ASF
:FULLY-SPECIFIED
:DEGREES
982
root 16.034 16.116 -6.01779 -357.477 -34.2869 -0.11412
lowerback 14.8714 2.36108 -2.22645
upperback 5.67719 2.63408 -1.46894
thorax -2.35524 1.25361 -0.71529
lowerneck -21.5379 -5.63588 -1.87804
upperneck 18.0764 -8.49495 5.68017
head 9.60489 -3.42762 1.04299
rclavicle 6.16232e-014 -1.35174e-014
rhumerus -21.1951 31.1422 -78.4618
rradius 74.7291
rwrist -10.5868
rhand -19.0004 -30.3879
rfingers 7.12502
rthumb 7.30474 -60.2418
lclavicle 6.16232e-014 -1.35174e-014
lhumerus -44.4841 4.86013 71.698
lradius 25.1633
lwrist 14.6938
lhand -32.8276 -22.679
lfingers 7.12502
lthumb -6.04776 7.21467
rfemur 1.93925 2.31692 10.8433
rtibia 57.6317
rfoot -0.000596428 3.79241
rtoes -3.65341
lfemur -27.3446 6.51597 -29.2806
ltibia 37.7846
lfoot -16.4305 4.51052
ltoes 10.2161
983
root 15.8998 16.2233 -5.79682 -358.148 -33.6215 1.06091
lowerback 14.8213 2.12921 -2.91416
upperback 5.6878 2.23555 -1.54112
thorax -2.3366 1.0504 -0.335893
lowerneck -21.4664 -5.67414 -1.77497
upperneck 17.8401 -8.54846 5.62054
head 9.50351 -3.4604 1.00146
rclavicle 1.06549e-013 -7.55382e-015
rhumerus -23.0553 31.0928 -80.0224
rradius 72.8602
rwrist -10.1201
rhand -18.9879 -31.0206
rfingers 7.12502
rthumb 7.31685 -60.8741
lclavicle 1.06549e-013 -7.55382e-015
lhumerus -43.0704 3.99801 74.3472
lradius 26.0187
lwrist 15.775
lhand -33.5146 -22.9823
lfingers 7.12502
lthumb -6.71099 6.89135
rfemur -0.534625 2.20215 10.0477
rtibia 59.6176
rfoot -0.651748 3.12424
rtoes -4.35005
lfemur -25.0787 5.92247 -30.3327
ltibia 35.8031
lfoot -16.5963 4.0996
ltoes 9.98092
984
root 15.7677 16.3331 -5.57218 -358.486 -32.9755 1.8651
lowerback 14.6486 1.90423 -3.22152
upperback 5.67012 1.90717 -1.58435
thorax -2.26513 0.885825 -0.148664
lowerneck -21.4934 -5.78904 -1.9858
upperneck 17.6839 -8.70599 5.94976
head 9.48741 -3.51378 1.12469
rclavicle 3.0911e-014 -4.37326e-015
rhumerus -24.7319 30.8634 -81.4783
rradius 70.645
rwrist -9.6205
rhand -18.8177 -31.0887
rfingers 7.12502
rthumb 7.48113 -60.9364
lclavicle 3.0911e-014 -4.37326e-015
lhumerus -41.442 3.11337 76.7315
lradius 26.7094
lwrist 16.2001
lhand -33.8157 -23.7227
lfingers 7.12502
lthumb -7.00165 6.14149
rfemur -3.09332 2.13874 9.63386
rtibia 61.2745
rfoot -1.67307 2.32248
rtoes -5.3003
lfemur -22.9918 4.82773 -31.049
ltibia 34.0281
lfoot -16.8811 4.00932
ltoes 9.97253
985
root 15.6403 16.4403 -5.34126 -358.588 -32.2463 2.47709
lowerback 14.328 1.53047 -3.27965
upperback 5.63049 1.42713 -1.60385
thorax -2.12579 0.648407 -0.0503749
lowerneck -21.617 -5.80571 -2.33753
upperneck 17.5968 -8.69133 6.2973
head 9.51291 -3.49033 1.29993
rclavicle -1.02374e-013 4.65156e-014
rhumerus -26.3739 30.3357 -83.0281
rradius 68.3148
rwrist -8.83102
rhand -18.2992 -31.198
rfingers 7.12502
rthumb 7.98154 -61.0273
lclavicle -1.02374e-013 4.65156e-014
lhumerus -39.8783 2.08076 79.0442
lradius 27.6848
lwrist 17.2152
lhand -33.6438 -24.5492
lfingers 7.12502
lthumb -6.83576 5.32041
rfemur -5.78402 1.88831 9.31822
rtibia 62.7129
rfoot -3.05214 1.87443
rtoes -5.31146
lfemur -21.0323 3.61426 -31.6708
ltibia 32.154
lfoot -16.939 4.11789
ltoes 8.40051
986
root 15.5094 16.5506 -5.10964 -358.766 -31.5716 3.01776
lowerback 14.1365 1.20853 -3.23653
upperback 5.57725 1.02027 -1.64452
thorax -2.06838 0.448972 -0.0492167
lowerneck -21.7446 -5.87931 -2.59381
upperneck 17.6174 -8.76188 6.51032
head 9.56932 -3.51207 1.40033
rclavicle 2.44505e-014 -7.35503e-015
rhumerus -28.2384 29.549 -84.5941
rradius 65.9914
rwrist -8.01129
rhand -17.9054 -31.5615
rfingers 7.12502
rthumb 8.36161 -61.376
lclavicle 2.44505e-014 -7.35503e-015
lhumerus -38.3062 0.433098 81.4467
lradius 28.8366
lwrist 18.5518
lhand -33.6655 -25.0881
lfingers 7.12502
lthumb -6.8567 4.78088
rfemur -8.35679 1.69829 9.06629
rtibia 63.8213
rfoot -4.55353 1.7194
rtoes -3.29055
lfemur -18.834 2.88649 -32.2001
ltibia 29.9914
lfoot -16.7746 4.08041
ltoes 5.47691
987
root 15.3746 16.6649 -4.878 -359.165 -30.8937 3.69475
lowerback 14.1047 1.00475 -3.41343
upperback 5.52543 0.731642 -1.66228
thorax -2.10043 0.306139 0.0770919
lowerneck -21.7761 -6.09157 -2.94672
upperneck 17.6913 -9.01305 6.78281
head 9.64522 -3.61796 1.51065
rclavicle -7.68303e-014 -1.94809e-014
rhumerus -30.175 28.8371 -85.8326
rradius 63.6677
rwrist -7.55561
rhand -17.7948 -32.1134
rfingers 7.12502
rthumb 8.46838 -61.9236
lclavicle -7.68303e-014 -1.94809e-014
lhumerus -36.6436 -1.49926 83.8411
lradius 29.8284
lwrist 19.2762
lhand -33.9546 -25.382
lfingers 7.12502
lthumb -7.13575 4.47768
rfemur -10.5908 1.51135 8.67187
rtibia 64.3563
rfoot -5.92018 1.73009
rtoes -2.95681
lfemur -16.3608 2.39831 -32.8387
ltibia 27.6943
lfoot -16.6903 3.85388
ltoes 3.05763
